<svg xmlns="http://www.w3.org/2000/svg" viewBox="0 0 128 128" role="img" aria-label="Language practice">
  <!-- Globe -->
  <circle cx="64" cy="64" r="42" fill="#9AD4F0" stroke="#111" stroke-width="5"/>
  <path fill="#8BC98A" stroke="#111" stroke-width="3.5" stroke-linejoin="round"
    d="M40 48c10-14 22-16 34-10 7 3 12 1 18 6-1 10-6 16-12 20-4 3-3 8 0 12-10 7-22 8-34 2-6-3-10 1-16-2 1-8 4-16 10-28z"/>
  <path fill="#8BC98A" stroke="#111" stroke-width="3.5" stroke-linejoin="round"
    d="M36 78c12 0 18 6 28 4 8-1 14 4 22 2-2 10-10 16-20 18-14 2-28-2-36-12-4-5-2-10 6-12z"/>
  <!-- Left bubble: ? -->
  <g>
    <rect x="10" y="58" width="48" height="40" rx="12" fill="#F0C94D" stroke="#111" stroke-width="5"/>
    <path d="M26 98l10-10 10 10H26z" fill="#F0C94D" stroke="#111" stroke-width="5" stroke-linejoin="round"/>
    <text x="34" y="86" text-anchor="middle" font-family="Hiragino Sans, PingFang SC, Noto Sans SC, sans-serif" font-size="24" font-weight="700" fill="#111">?</text>
  </g>
  <!-- Right bubble: A -->
  <g>
    <rect x="70" y="30" width="48" height="40" rx="12" fill="#E4574D" stroke="#111" stroke-width="5"/>
    <path d="M86 70l10-10 10 10H86z" fill="#E4574D" stroke="#111" stroke-width="5" stroke-linejoin="round"/>
    <text x="94" y="58" text-anchor="middle" font-family="Arial Black, Helvetica Neue, sans-serif" font-size="26" font-weight="700" fill="#111">A</text>
  </g>
</svg>
