<svg xmlns="http://www.w3.org/2000/svg" viewBox="0 0 128 128" role="img" aria-label="Language practice">
  <!-- Globe -->
  <circle cx="64" cy="64" r="46" fill="#B8E0F0"/>
  <path fill="#9FD4A8" d="M38 42c8-10 18-12 28-8 6 2 10 8 14 7 5-1 9-7 16-5 2 8-1 16-6 22-3 4-2 9 1 13-8 6-18 8-28 5-7-2-11 2-18 1-4-8-2-17 1-23 2-5-2-9-8-12z"/>
  <path fill="#9FD4A8" d="M30 78c10-2 16 4 24 3 7-1 12 3 20 2 6 8 4 16-2 22-12 4-26 2-36-6-6-5-8-13-6-21z"/>
  <!-- Speech: A -->
  <g>
    <rect x="14" y="34" width="42" height="34" rx="10" fill="#F2786D"/>
    <path d="M28 68l8-8 8 8H28z" fill="#F2786D"/>
    <text x="35" y="58" text-anchor="middle" font-family="Arial Black, Helvetica Neue, sans-serif" font-size="22" font-weight="700" fill="#fff">A</text>
  </g>
  <!-- Speech: ‡ -->
  <g>
    <rect x="42" y="72" width="42" height="34" rx="10" fill="#F5D76E"/>
    <path d="M56 106l8-8 8 8H56z" fill="#F5D76E"/>
    <text x="63" y="96" text-anchor="middle" font-family="Hiragino Sans, PingFang SC, Noto Sans SC, sans-serif" font-size="20" font-weight="700" fill="#6BB3E0">‡</text>
  </g>
  <!-- Speech:  -->
  <g>
    <rect x="72" y="22" width="42" height="34" rx="10" fill="#F2F0EC"/>
    <path d="M86 56l8-8 8 8H86z" fill="#F2F0EC"/>
    <text x="93" y="46" text-anchor="middle" font-family="Arial, Helvetica, sans-serif" font-size="20" font-weight="700" fill="#E8836A"></text>
  </g>
</svg>
